<svg xmlns="http://www.w3.org/2000/svg" version="2" width="400" height="127">
    <svg x="0" y="0" width="190" height="127">
        <svg x="63" y="42" width="127" height="43">
            <line x1="0.5" y1="0.5" x2="63.5" y2="42.5" style="stroke:black;stroke-dasharray:4"/>
        </svg>
        <svg x="0" y="0" width="127" height="43">
            <rect x="0.5" y="0.5" width="126" height="42" style="stroke:black;fill-opacity:0.1"/>
            <text x="63.5" y="24.5" fill="black" style="font-family:monospace;text-anchor:middle">
                Suspend&lt;A&gt;
            </text>
        </svg>
        <svg x="63" y="84" width="127" height="43">
            <rect x="0.5" y="0.5" width="126" height="42" style="stroke:black;stroke-dasharray:4;fill-opacity:0.1"/>
            <text x="63.5" y="24.5" fill="black" style="font-family:monospace;text-anchor:middle">
                Trampoline&lt;A&gt;
            </text>
        </svg>
    </svg>
    <svg x="210" y="42" width="43" height="43">
        <line x1="0" y1="16.5" x2="36.5" y2="16.5" style="stroke:black;stroke-width:2"/>
        <line x1="0" y1="26.5" x2="36.5" y2="26.5" style="stroke:black;stroke-width:2"/>
        <polyline points="31.5,11.5 41.5,21.5 31.5,31.5" style="stroke:black;stroke-width:2;fill-opacity:0.0"/>
    </svg>
    <svg x="273" y="42" width="127" height="43">
        <rect x="0.5" y="0.5" width="126" height="42" style="stroke:green;fill:green;fill-opacity:0.1"/>
        <text x="63.5" y="24.5" fill="green" style="font-family:monospace;text-anchor:middle">
            Trampoline&lt;A&gt;
        </text>
    </svg>
</svg>