<svg xmlns="http://www.w3.org/2000/svg" version="2">
    <svg width="841" height="211">
        <svg x="0" y="0" width="379" height="211">
            <svg x="147" y="42" width="127" height="43">
                <line x1="0.5" y1="42.5" x2="63.5" y2="0.5" style="stroke:black"/>
            </svg>
            <svg x="252" y="42" width="64" height="43">
                <line x1="0.5" y1="0.5" x2="63.5" y2="42.5" style="stroke:black;stroke-dasharray:4"/>
            </svg>
            <svg x="63" y="126" width="64" height="43">
                <line x1="0.5" y1="42.5" x2="63.5" y2="0.5" style="stroke:black"/>
            </svg>
            <svg x="168" y="126" width="127" height="43">
                <line x1="0.5" y1="0.5" x2="63.5" y2="42.5" style="stroke:black;stroke-dasharray:4"/>
            </svg>
            <svg x="168" y="0" width="127" height="43">
                <rect x="0.5" y="0.5" width="126" height="42" style="stroke:black;fill:white"/>
                <text x="63.5" y="24.5" fill="black" style="font-family:monospace;text-anchor:middle">
                    FlatMap&lt;B,C&gt;
                </text>
            </svg>
            <svg x="84" y="84" width="127" height="85">
                <rect x="0.5" y="0.5" width="126" height="42" style="stroke:black;fill:white"/>
                <text x="63.5" y="24.5" fill="black" style="font-family:monospace;text-anchor:middle">
                    FlatMap&lt;A,B&gt;
                </text>
            </svg>
            <svg x="252" y="84" width="127" height="85">
                <rect x="0.5" y="0.5" width="126" height="42" style="stroke:black;stroke-dasharray:4;fill:white"/>
                <text x="63.5" y="24.5" fill="black" style="font-family:monospace;text-anchor:middle">Trampoline&lt;C&gt;</text>
            </svg>
            <svg x="0" y="168" width="127" height="85">
                <rect x="0.5" y="0.5" width="126" height="42" style="stroke:black;fill:white"/>
                <text x="63.5" y="24.5" fill="black" style="font-family:monospace;text-anchor:middle">Trampoline&lt;A&gt;</text>
            </svg>
            <svg x="168" y="168" width="127" height="85">
                <rect x="0.5" y="0.5" width="126" height="42" style="stroke:black;stroke-dasharray:4;fill:white"/>
                <text x="63.5" y="24.5" fill="black" style="font-family:monospace;text-anchor:middle">Trampoline&lt;B&gt;</text>
            </svg>
        </svg>
        <svg x="399" y="84" width="43" height="43">
            <line x1="0" y1="16.5" x2="36.5" y2="16.5" style="stroke:black;stroke-width:2"/>
            <line x1="0" y1="26.5" x2="36.5" y2="26.5" style="stroke:black;stroke-width:2"/>
            <polyline points="31.5,11.5 41.5,21.5 31.5,31.5" style="stroke:black;stroke-width:2;fill-opacity:0.0"/>
        </svg>
        <svg x="462" y="0" width="379" height="211">
            <svg x="63" y="42" width="64" height="43">
                <line x1="0.5" y1="42.5" x2="63.5" y2="0.5" style="stroke:black"/>
            </svg>
            <svg x="168" y="42" width="64" height="43">
                <line x1="0.5" y1="0.5" x2="63.5" y2="42.5" style="stroke:green;stroke-dasharray:4"/>
            </svg>
            <svg x="147" y="126" width="64" height="43">
                <line x1="0.5" y1="42.5" x2="63.5" y2="0.5" style="stroke:black;stroke-dasharray:4"/>
            </svg>
            <svg x="252" y="126" width="64" height="43">
                <line x1="0.5" y1="0.5" x2="63.5" y2="42.5" style="stroke:black;stroke-dasharray:4"/>
            </svg>
            <svg x="84" y="0" width="127" height="43">
                <rect x="0.5" y="0.5" width="126" height="42" style="stroke:green;fill:white"/>
                <text x="63.5" y="24.5" fill="green" style="font-family:monospace;text-anchor:middle">
                    FlatMap&lt;A,C&gt;
                </text>
            </svg>
            <svg x="0" y="84" width="127" height="43">
                <rect x="0.5" y="0.5" width="126" height="42" style="stroke:black;fill:white"/>
                <text x="63.5" y="24.5" fill="black" style="font-family:monospace;text-anchor:middle">Trampoline&lt;A&gt;</text>
            </svg>
            <svg x="168" y="84" width="127" height="43">
                <rect x="0.5" y="0.5" width="126" height="42" style="stroke:green;stroke-dasharray:4;fill:white"/>
                <text x="63.5" y="24.5" fill="green" style="font-family:monospace;text-anchor:middle">
                    FlatMap&lt;B,C&gt;
                </text>
            </svg>
            <svg x="84" y="168" width="127" height="43">
                <rect x="0.5" y="0.5" width="126" height="42" style="stroke:black;stroke-dasharray:4;fill:white"/>
                <text x="63.5" y="24.5" fill="black" style="font-family:monospace;text-anchor:middle">Trampoline&lt;B&gt;</text>
            </svg>
            <svg x="252" y="168" width="127" height="43">
                <rect x="0.5" y="0.5" width="126" height="42" style="stroke:black;stroke-dasharray:4;fill:white"/>
                <text x="63.5" y="24.5" fill="black" style="font-family:monospace;text-anchor:middle">Trampoline&lt;C&gt;</text>
            </svg>
        </svg>
    </svg>
</svg>